<?xml version="1.0" encoding="UTF-8"?>
<!-- Generator: Adobe Illustrator 16.0.0, SVG Export Plug-In . SVG Version: 6.00 Build 0)  -->
<!DOCTYPE svg PUBLIC "-//W3C//DTD SVG 1.1//EN" "http://www.w3.org/Graphics/SVG/1.1/DTD/svg11.dtd">
<svg version="1.1" id="レイヤー_1" xmlns="http://www.w3.org/2000/svg" xmlns:xlink="http://www.w3.org/1999/xlink" x="0px" y="0px" preserveAspectRatio="none" width="16px" height="16px" viewBox="0 0 16 16" style="enable-background:new 0 0 16 16;" xml:space="preserve">
<path style="fill-rule:evenodd;clip-rule:evenodd;fill:#68AAC1;" d="M8,1.9C4.6,1.9,1.9,4.6,1.9,8c0,3.4,2.7,6.1,6.1,6.1  c3.4,0,6.1-2.7,6.1-6.1C14.1,4.6,11.3,1.9,8,1.9z M8,15.5c-4.1,0-7.5-3.4-7.5-7.5c0-4.1,3.4-7.5,7.5-7.5c4.1,0,7.5,3.4,7.5,7.5  C15.5,12.1,12.1,15.5,8,15.5z"/>
<rect x="5" y="7.3" style="fill-rule:evenodd;clip-rule:evenodd;fill:#68AAC1;" width="6" height="1.3"/>
<rect x="7.3" y="5" style="fill-rule:evenodd;clip-rule:evenodd;fill:#68AAC1;" width="1.3" height="6"/>
</svg>